<?xml version="1.0" encoding="UTF-8" standalone="no"?>
<!-- Created with Inkscape (http://www.inkscape.org/) -->

<svg
   xmlns:dc="http://purl.org/dc/elements/1.1/"
   xmlns:cc="http://creativecommons.org/ns#"
   xmlns:rdf="http://www.w3.org/1999/02/22-rdf-syntax-ns#"
   xmlns:svg="http://www.w3.org/2000/svg"
   xmlns="http://www.w3.org/2000/svg"
   xmlns:xlink="http://www.w3.org/1999/xlink"
   xmlns:sodipodi="http://sodipodi.sourceforge.net/DTD/sodipodi-0.dtd"
   xmlns:inkscape="http://www.inkscape.org/namespaces/inkscape"
   width="96"
   height="96"
   id="svg6517"
   version="1.1"
   inkscape:version="0.48.4 r9939"
   sodipodi:docname="munin-icon.svg">
  <defs
     id="defs6519">
    <linearGradient
       inkscape:collect="always"
       xlink:href="#Background"
       id="linearGradient6461"
       gradientUnits="userSpaceOnUse"
       x1="0"
       y1="970.29498"
       x2="144"
       y2="970.29498"
       gradientTransform="matrix(0,-0.66666669,0.6660448,0,-866.25992,731.29077)" />
    <linearGradient
       id="Background">
      <stop
         id="stop4178"
         offset="0"
         style="stop-color:#e1e1e1;stop-opacity:1;" />
      <stop
         id="stop4180"
         offset="1"
         style="stop-color:#ffffff;stop-opacity:1;" />
    </linearGradient>
    <filter
       style="color-interpolation-filters:sRGB;"
       inkscape:label="Inner Shadow"
       id="filter1121">
      <feFlood
         flood-opacity="0.59999999999999998"
         flood-color="rgb(0,0,0)"
         result="flood"
         id="feFlood1123" />
      <feComposite
         in="flood"
         in2="SourceGraphic"
         operator="out"
         result="composite1"
         id="feComposite1125" />
      <feGaussianBlur
         in="composite1"
         stdDeviation="1"
         result="blur"
         id="feGaussianBlur1127" />
      <feOffset
         dx="0"
         dy="2"
         result="offset"
         id="feOffset1129" />
      <feComposite
         in="offset"
         in2="SourceGraphic"
         operator="atop"
         result="composite2"
         id="feComposite1131" />
    </filter>
    <filter
       style="color-interpolation-filters:sRGB;"
       inkscape:label="Drop Shadow"
       id="filter950">
      <feFlood
         flood-opacity="0.25"
         flood-color="rgb(0,0,0)"
         result="flood"
         id="feFlood952" />
      <feComposite
         in="flood"
         in2="SourceGraphic"
         operator="in"
         result="composite1"
         id="feComposite954" />
      <feGaussianBlur
         in="composite1"
         stdDeviation="1"
         result="blur"
         id="feGaussianBlur956" />
      <feOffset
         dx="0"
         dy="1"
         result="offset"
         id="feOffset958" />
      <feComposite
         in="SourceGraphic"
         in2="offset"
         operator="over"
         result="composite2"
         id="feComposite960" />
    </filter>
    <clipPath
       clipPathUnits="userSpaceOnUse"
       id="clipPath873">
      <g
         transform="matrix(0,-0.66666667,0.66604479,0,-258.25992,677.00001)"
         id="g875"
         inkscape:label="Layer 1"
         style="fill:#ff00ff;fill-opacity:1;stroke:none;display:inline">
        <path
           style="fill:#ff00ff;fill-opacity:1;stroke:none;display:inline"
           d="m 46.702703,898.22775 50.594594,0 C 138.16216,898.22775 144,904.06497 144,944.92583 l 0,50.73846 c 0,40.86071 -5.83784,46.69791 -46.702703,46.69791 l -50.594594,0 C 5.8378378,1042.3622 0,1036.525 0,995.66429 L 0,944.92583 C 0,904.06497 5.8378378,898.22775 46.702703,898.22775 Z"
           id="path877"
           inkscape:connector-curvature="0"
           sodipodi:nodetypes="sssssssss" />
      </g>
    </clipPath>
    <filter
       inkscape:collect="always"
       id="filter891"
       inkscape:label="Badge Shadow">
      <feGaussianBlur
         inkscape:collect="always"
         stdDeviation="0.71999962"
         id="feGaussianBlur893" />
    </filter>
  </defs>
  <sodipodi:namedview
     id="base"
     pagecolor="#ffffff"
     bordercolor="#666666"
     borderopacity="1.0"
     inkscape:pageopacity="0.0"
     inkscape:pageshadow="2"
     inkscape:zoom="4.0745362"
     inkscape:cx="-110.33435"
     inkscape:cy="49.018169"
     inkscape:document-units="px"
     inkscape:current-layer="layer3"
     showgrid="true"
     fit-margin-top="0"
     fit-margin-left="0"
     fit-margin-right="0"
     fit-margin-bottom="0"
     inkscape:window-width="2801"
     inkscape:window-height="1596"
     inkscape:window-x="79"
     inkscape:window-y="24"
     inkscape:window-maximized="1"
     showborder="true"
     showguides="true"
     inkscape:guide-bbox="true"
     inkscape:showpageshadow="false">
    <inkscape:grid
       type="xygrid"
       id="grid821" />
    <sodipodi:guide
       orientation="1,0"
       position="16,48"
       id="guide823" />
    <sodipodi:guide
       orientation="0,1"
       position="64,80"
       id="guide825" />
    <sodipodi:guide
       orientation="1,0"
       position="80,40"
       id="guide827" />
    <sodipodi:guide
       orientation="0,1"
       position="64,16"
       id="guide829" />
  </sodipodi:namedview>
  <metadata
     id="metadata6522">
    <rdf:RDF>
      <cc:Work
         rdf:about="">
        <dc:format>image/svg+xml</dc:format>
        <dc:type
           rdf:resource="http://purl.org/dc/dcmitype/StillImage" />
        <dc:title></dc:title>
      </cc:Work>
    </rdf:RDF>
  </metadata>
  <g
     inkscape:label="BACKGROUND"
     inkscape:groupmode="layer"
     id="layer1"
     transform="translate(268,-635.29076)"
     style="display:inline">
    <path
       style="fill:url(#linearGradient6461);fill-opacity:1;stroke:none;display:inline;filter:url(#filter1121)"
       d="m -268,700.15563 0,-33.72973 c 0,-27.24324 3.88785,-31.13513 31.10302,-31.13513 l 33.79408,0 c 27.21507,0 31.1029,3.89189 31.1029,31.13513 l 0,33.72973 c 0,27.24325 -3.88783,31.13514 -31.1029,31.13514 l -33.79408,0 c -27.21517,0 -31.10302,-3.89189 -31.10302,-31.13514 z"
       id="path6455"
       inkscape:connector-curvature="0"
       sodipodi:nodetypes="sssssssss" />
  </g>
  <g
     inkscape:groupmode="layer"
     id="layer3"
     inkscape:label="MUNIN"
     style="display:inline">
    <g
       transform="matrix(0.33864211,0,0,0.33864211,20.303368,16.101003)"
       id="g1609">
      <path
         inkscape:connector-curvature="0"
         style="fill:none;stroke:#32ff00;stroke-width:1.50116241;stroke-linecap:round;stroke-linejoin:round;stroke-opacity:1"
         d="m 157.17279,167.28866 0,-0.71001 -1.395,0 -1.16301,0.91401 0,-0.50801 -1.39401,0 0,-3.86206 -1.16101,0 0,-3.55605 -0.698,0 0,-0.71101 -1.16301,0 0,4.47107 -1.625,0 0,3.45505 -1.74402,0 0,-1.06902 -0.928,0.40801 -1.278,0.55901 -0.93,0 0,1.62502 -1.85902,0 0,-1.31802 0,-2.03503 0,-2.44003 -1.394,0 0,-1.01602 -1.39601,0 0,-4.57407 -1.39301,0 0,4.57407 -0.69701,0.305 0,5.33608 -1.27699,0 -1.27801,0.56101 -1.39601,0 -1.16201,-0.508 -2.09101,0 0,-1.22102 -1.396,0 0,1.93203 -1.16001,0 0,1.32002 -0.93301,0 0,0.86301 -2.08701,0 0.004,0.002 0,-0.56001 -0.934,0 0,-7.31711 -0.92801,0 0,-4.98007 -0.582,-0.25401 0,-3.30305 -1.046,0 0,7.82612 -0.93101,0 0,7.92812 -0.92601,0 0,0.66001 -1.15899,0 0,-0.66001 -0.93402,0 0,-4.16806 -0.697,0 0,-4.87908 -0.697,0 0,-15.44323 -0.46501,0 0,-7.21311 -1.162,0 0,9.85215 -0.92901,0 0,20.0213 -0.698,0.30701 0,1.52302 -0.927,0 0,-1.42402 -0.466,0 0,-2.64004 -1.16201,0 0,-1.62703 -0.931,0 0,3.04905 -0.69501,0 0,0.81201 -0.93001,0 0,-1.52302 -1.161,0 0,1.72602 -1.62701,0 0,1.72703 -1.39401,0 0,-4.67407 -0.583,-0.254 0,-5.02908 -1.74,0 0,4.16606 -1.163815,0.50801 0,5.84309 -0.693904,0 0,-17.53126 0,-8.23213 -0.699003,0 0,-10.05515 -0.696704,0 0,8.53113 -0.930905,0 0,17.78327 -0.695803,0 0,0.91601 -0.696804,0 0,4.67407 0,2.64304 -0.930905,0 0,-2.54104 -1.160905,0 0,-3.86206 0,-7.92512 -1.394807,0 0,-10.46715 -0.580804,-0.25401 0,6.6541 -1.742908,0 0,4.16607 0,7.72511 -0.698003,0 0,2.23604 -0.929005,0.407 0,3.96206 0,1.17002 -1.157905,0 0,-5.64009 -0.700004,0 0,-10.06315 0,-5.18107 -0.698003,0 0,12.19518 -1.159907,0 0,6.5041 -0.695803,0.306 0,-1.32202 -1.627909,0 0,0.81301 -0.930004,0 0,1.82803 -0.696703,0 0,-1.93003 -0.930905,0 0,-1.72802 -1.160906,0 0,0.91601 -0.350902,-0.155 0,1.47502 -0.986805,0.43201 0,1.09301 -1.130806,0.49401 0,-1.71403 -1.482907,0 0,-1.21901 -0.699003,0 0,-1.62703 -1.392807,0 0,-1.62702 -0.698004,0 0,-2.64104 -1.160906,0 0,-5.89409 -1.161905,0 0,7.72211 -1.161906,0 0,2.44004 -0.928905,0.40601 0,3.04904 -0.696803,0 0,1.06802 -0.926705,0 0,-6.04709 -0.700004,-0.30601 0,-6.19709 -1.161905,0 0,-6.6081 -0.698904,0 0,-17.04125 -1.160906,0 0,14.19521 -0.699003,0 0,10.77416 -0.929005,0 0,0.81201 -0.928904,0 0,4.47307 -1.393807,0 0,5.38508 0,0.56001 -1.159907,0 0,-0.96502 -1.164805,0 0,-0.81401 -1.160907,0 0,-2.03303 -1.626007,0 0,-10.06115 -1.162806,0 0,-12.60119 -1.393807,0 0,10.67016 -0.930005,0 0,-1.82803 -1.160806,0 0,-9.24913 -0.582802,-0.25301 0,-5.91509 -1.044006,0 0,8.20213 -1.161805,0 0,9.34714 -0.930005,0 0,6.6081 -0.928905,0 0,5.89408 -0.465802,0 0,-2.33803 -1.394807,0 0,3.04904 -1.627009,0 0,-1.83002 -1.160805,0 0,3.45705 -1.393807,0 0,-2.33804 -1.393807,0 0,0.91402 -1.161906,0 0,1.42402 -1.161906,0 0,0.66001 -1.391807,0 0,-1.77903 -1.629908,0 0,1.77903 -2.08791,0 0,-0.76301 -1.164807,0 0,0.76301 -2.08791,0 0,-0.86501 -0.933804,0 0,-1.32002 -1.160907,0 0,-1.93203 -1.394806,0 0,1.22102"
         id="path1493" />
      <path
         inkscape:connector-curvature="0"
         style="fill:#000000;stroke:none"
         d="m 158.4488,6.2968219 c -2.43202,3.6440546 -8.53905,3.6640449 -8.53905,3.6640449 l 1.57801,-3.9610594 C 143.46072,8.0058475 135.27868,16.491995 135.27868,16.491995 l -0.016,-4.975075 -10.81005,8.215123 2.18401,-6.099091 -4.31503,2.888043 c -5.24602,3.110047 -11.19705,4.364066 -11.19705,4.364066 -9.00605,0.558008 -21.875716,11.419171 -21.875716,11.419171 1.564008,-4.02906 0.439002,-12.332185 0.439002,-12.332185 C 81.763006,35.48428 66.664731,42.463384 64.50192,43.344398 62.333909,44.222411 50.954951,49.429489 40.617,58.879631 30.286148,68.320772 27.003131,84.108009 27.003131,84.108009 26.176228,87.071053 18.481189,92.044128 14.936171,96.688198 13.314363,98.80923 4.2123269,110.1758 1.0343309,124.07801 c -2.6909335,11.80218 0.7189936,23.18935 0.7189936,23.18935 0,0 0.597913,4.31206 3.8698995,-3.38905 l 1.3618168,-0.27301 c 0,0 -1.6638184,3.59806 -0.6408632,3.24605 1.0219751,-0.34801 6.8959854,-6.6821 11.7068094,-12.03518 4.814024,-5.35908 21.210106,-18.52928 35.97798,-19.48429 0,0 10.022951,-3.78306 17.448088,2.02503 0,0 4.896025,6.05909 12.462962,5.30508 0,0 0.887904,-0.24801 3.306817,1.39302 l -0.1418,-3.16105 c 0,0 8.689943,5.10008 17.810486,1.49502 l -1.6,-2.26603 c 0,0 1.639,-2.41404 6.47203,0.85901 l 0.286,-2.15403 c 0,0 8.58805,4.57607 12.99907,4.42807 l -1.21001,-3.88306 c 0,0 9.09504,-1.27602 18.10509,-1.83203 0,0 11.22206,-2.42004 18.6281,5.76209 L 158.4478,6.2968219"
         id="path1509" />
      <g
         id="g1604">
        <path
           inkscape:connector-curvature="0"
           style="fill:none;stroke:#000000;stroke-width:1.50116313;stroke-linecap:round;stroke-linejoin:round"
           d="m 20.6738,186.09538 0,-49.07278"
           id="path1505" />
        <path
           inkscape:connector-curvature="0"
           style="fill:none;stroke:#000000;stroke-width:1.50117779;stroke-linecap:round;stroke-linejoin:round"
           d="m 20.673816,85.401045 0,-84.98218412 137.380864,0 0,185.67650912"
           id="path1507" />
        <path
           inkscape:connector-curvature="0"
           style="fill:none;stroke:#000000;stroke-width:1.52499998;stroke-linecap:round;stroke-linejoin:round"
           d="m 20.685718,186.08346 136.899462,0"
           id="path1506" />
      </g>
    </g>
  </g>
  <g
     inkscape:groupmode="layer"
     id="layer2"
     inkscape:label="BADGE"
     style="display:none"
     sodipodi:insensitive="true">
    <g
       style="display:inline"
       transform="translate(-340.00001,-581)"
       id="g4394"
       clip-path="none">
      <g
         id="g855">
        <g
           inkscape:groupmode="maskhelper"
           id="g870"
           clip-path="url(#clipPath873)"
           style="opacity:0.6;filter:url(#filter891)">
          <path
             transform="matrix(1.4999992,0,0,1.4999992,-29.999795,-237.54282)"
             d="m 264,552.36218 a 12,12 0 1 1 -24,0 12,12 0 1 1 24,0 z"
             sodipodi:ry="12"
             sodipodi:rx="12"
             sodipodi:cy="552.36218"
             sodipodi:cx="252"
             id="path844"
             style="color:#000000;fill:#000000;fill-opacity:1;fill-rule:nonzero;stroke:none;stroke-width:4;marker:none;visibility:visible;display:inline;overflow:visible;enable-background:accumulate"
             sodipodi:type="arc" />
        </g>
        <g
           id="g862">
          <path
             sodipodi:type="arc"
             style="color:#000000;fill:#f5f5f5;fill-opacity:1;fill-rule:nonzero;stroke:none;stroke-width:4;marker:none;visibility:visible;display:inline;overflow:visible;enable-background:accumulate"
             id="path4398"
             sodipodi:cx="252"
             sodipodi:cy="552.36218"
             sodipodi:rx="12"
             sodipodi:ry="12"
             d="m 264,552.36218 a 12,12 0 1 1 -24,0 12,12 0 1 1 24,0 z"
             transform="matrix(1.4999992,0,0,1.4999992,-29.999795,-238.54282)" />
          <path
             transform="matrix(1.25,0,0,1.25,33,-100.45273)"
             d="m 264,552.36218 a 12,12 0 1 1 -24,0 12,12 0 1 1 24,0 z"
             sodipodi:ry="12"
             sodipodi:rx="12"
             sodipodi:cy="552.36218"
             sodipodi:cx="252"
             id="path4400"
             style="color:#000000;fill:#dd4814;fill-opacity:1;fill-rule:nonzero;stroke:none;stroke-width:4;marker:none;visibility:visible;display:inline;overflow:visible;enable-background:accumulate"
             sodipodi:type="arc" />
          <path
             sodipodi:type="star"
             style="color:#000000;fill:#f5f5f5;fill-opacity:1;fill-rule:nonzero;stroke:none;stroke-width:3;marker:none;visibility:visible;display:inline;overflow:visible;enable-background:accumulate"
             id="path4459"
             sodipodi:sides="5"
             sodipodi:cx="666.19574"
             sodipodi:cy="589.50385"
             sodipodi:r1="7.2431178"
             sodipodi:r2="4.3458705"
             sodipodi:arg1="1.0471976"
             sodipodi:arg2="1.6755161"
             inkscape:flatsided="false"
             inkscape:rounded="0.1"
             inkscape:randomized="0"
             d="m 669.8173,595.77657 c -0.39132,0.22593 -3.62645,-1.90343 -4.07583,-1.95066 -0.44938,-0.0472 -4.05653,1.36297 -4.39232,1.06062 -0.3358,-0.30235 0.68963,-4.03715 0.59569,-4.47913 -0.0939,-0.44198 -2.5498,-3.43681 -2.36602,-3.8496 0.18379,-0.41279 4.05267,-0.59166 4.44398,-0.81759 0.39132,-0.22593 2.48067,-3.48704 2.93005,-3.4398 0.44938,0.0472 1.81505,3.67147 2.15084,3.97382 0.3358,0.30236 4.08294,1.2817 4.17689,1.72369 0.0939,0.44198 -2.9309,2.86076 -3.11469,3.27355 -0.18379,0.41279 0.0427,4.27917 -0.34859,4.5051 z"
             transform="matrix(1.511423,-0.16366377,0.16366377,1.511423,-755.37346,-191.93651)" />
        </g>
      </g>
    </g>
  </g>
</svg>
